<mxfile host="app.diagrams.net" agent="Mozilla/5.0 (Windows NT 10.0; Win64; x64; rv:137.0) Gecko/20100101 Firefox/137.0" version="24.9.1">
  <diagram name="Page-1" id="SEhFTJjyP5TGHyo1Qm9f">
    <mxGraphModel dx="1392" dy="842" grid="1" gridSize="10" guides="1" tooltips="1" connect="1" arrows="1" fold="1" page="1" pageScale="1" pageWidth="850" pageHeight="1100" math="0" shadow="0">
      <root>
        <mxCell id="0" />
        <mxCell id="1" parent="0" />
        <mxCell id="MraOp17JEpSf__5AFosI-23" value="" style="group;direction=east;" vertex="1" connectable="0" parent="1">
          <mxGeometry x="310" y="135" width="130" height="60" as="geometry" />
        </mxCell>
        <mxCell id="MraOp17JEpSf__5AFosI-2" value="" style="rounded=0;whiteSpace=wrap;html=1;movable=1;resizable=1;rotatable=1;deletable=1;editable=1;locked=0;connectable=1;direction=east;" vertex="1" parent="MraOp17JEpSf__5AFosI-23">
          <mxGeometry x="5" width="120" height="60" as="geometry" />
        </mxCell>
        <mxCell id="MraOp17JEpSf__5AFosI-15" value="Korpus anotovaných vět" style="text;html=1;align=center;verticalAlign=middle;whiteSpace=wrap;rounded=0;movable=1;resizable=1;rotatable=1;deletable=1;editable=1;locked=0;connectable=1;direction=east;" vertex="1" parent="MraOp17JEpSf__5AFosI-23">
          <mxGeometry y="5" width="130" height="50" as="geometry" />
        </mxCell>
        <mxCell id="MraOp17JEpSf__5AFosI-24" value="" style="group" vertex="1" connectable="0" parent="1">
          <mxGeometry x="60" y="280" width="120" height="60" as="geometry" />
        </mxCell>
        <mxCell id="MraOp17JEpSf__5AFosI-1" value="" style="rounded=0;whiteSpace=wrap;html=1;" vertex="1" parent="MraOp17JEpSf__5AFosI-24">
          <mxGeometry width="120" height="60" as="geometry" />
        </mxCell>
        <mxCell id="MraOp17JEpSf__5AFosI-21" value="Vstupní věta k anotaci" style="text;html=1;align=center;verticalAlign=middle;whiteSpace=wrap;rounded=0;" vertex="1" parent="MraOp17JEpSf__5AFosI-24">
          <mxGeometry x="5" y="15" width="110" height="30" as="geometry" />
        </mxCell>
        <mxCell id="MraOp17JEpSf__5AFosI-25" value="" style="group;direction=east;" vertex="1" connectable="0" parent="1">
          <mxGeometry x="260" y="280" width="70" height="60" as="geometry" />
        </mxCell>
        <mxCell id="MraOp17JEpSf__5AFosI-3" value="" style="rounded=0;whiteSpace=wrap;html=1;direction=east;" vertex="1" parent="MraOp17JEpSf__5AFosI-25">
          <mxGeometry width="70" height="60" as="geometry" />
        </mxCell>
        <mxCell id="MraOp17JEpSf__5AFosI-6" value="Náhodný Výběr" style="text;html=1;align=center;verticalAlign=middle;whiteSpace=wrap;rounded=0;direction=east;" vertex="1" parent="MraOp17JEpSf__5AFosI-25">
          <mxGeometry x="5" y="15" width="60" height="30" as="geometry" />
        </mxCell>
        <mxCell id="MraOp17JEpSf__5AFosI-26" value="" style="group;direction=east;" vertex="1" connectable="0" parent="1">
          <mxGeometry x="340" y="280" width="70" height="60" as="geometry" />
        </mxCell>
        <mxCell id="MraOp17JEpSf__5AFosI-4" value="" style="rounded=0;whiteSpace=wrap;html=1;direction=east;" vertex="1" parent="MraOp17JEpSf__5AFosI-26">
          <mxGeometry width="70" height="60" as="geometry" />
        </mxCell>
        <mxCell id="MraOp17JEpSf__5AFosI-10" value="Podobnost vět" style="text;html=1;align=center;verticalAlign=middle;whiteSpace=wrap;rounded=0;direction=east;" vertex="1" parent="MraOp17JEpSf__5AFosI-26">
          <mxGeometry x="5" y="15" width="60" height="30" as="geometry" />
        </mxCell>
        <mxCell id="MraOp17JEpSf__5AFosI-27" value="" style="group;direction=east;" vertex="1" connectable="0" parent="1">
          <mxGeometry x="425" y="280" width="70" height="60" as="geometry" />
        </mxCell>
        <mxCell id="MraOp17JEpSf__5AFosI-5" value="" style="rounded=0;whiteSpace=wrap;html=1;direction=east;" vertex="1" parent="MraOp17JEpSf__5AFosI-27">
          <mxGeometry width="70" height="60" as="geometry" />
        </mxCell>
        <mxCell id="MraOp17JEpSf__5AFosI-11" value="Podobnost entit" style="text;html=1;align=center;verticalAlign=middle;whiteSpace=wrap;rounded=0;direction=east;" vertex="1" parent="MraOp17JEpSf__5AFosI-27">
          <mxGeometry x="5" y="15" width="60" height="30" as="geometry" />
        </mxCell>
        <mxCell id="MraOp17JEpSf__5AFosI-28" value="" style="group;direction=east;" vertex="1" connectable="0" parent="1">
          <mxGeometry x="315" y="370" width="120" height="60" as="geometry" />
        </mxCell>
        <mxCell id="MraOp17JEpSf__5AFosI-16" value="" style="rounded=0;whiteSpace=wrap;html=1;direction=east;" vertex="1" parent="MraOp17JEpSf__5AFosI-28">
          <mxGeometry width="120" height="60" as="geometry" />
        </mxCell>
        <mxCell id="MraOp17JEpSf__5AFosI-17" value="Demonstrační věty pro dotaz" style="text;html=1;align=center;verticalAlign=middle;whiteSpace=wrap;rounded=0;direction=east;" vertex="1" parent="MraOp17JEpSf__5AFosI-28">
          <mxGeometry x="15" y="15" width="90" height="30" as="geometry" />
        </mxCell>
        <mxCell id="MraOp17JEpSf__5AFosI-12" style="edgeStyle=orthogonalEdgeStyle;rounded=0;orthogonalLoop=1;jettySize=auto;html=1;entryX=0.5;entryY=0;entryDx=0;entryDy=0;" edge="1" parent="1" source="MraOp17JEpSf__5AFosI-2" target="MraOp17JEpSf__5AFosI-3">
          <mxGeometry relative="1" as="geometry" />
        </mxCell>
        <mxCell id="MraOp17JEpSf__5AFosI-13" style="edgeStyle=orthogonalEdgeStyle;rounded=0;orthogonalLoop=1;jettySize=auto;html=1;exitX=0.5;exitY=1;exitDx=0;exitDy=0;entryX=0.5;entryY=0;entryDx=0;entryDy=0;" edge="1" parent="1" source="MraOp17JEpSf__5AFosI-2" target="MraOp17JEpSf__5AFosI-4">
          <mxGeometry relative="1" as="geometry" />
        </mxCell>
        <mxCell id="MraOp17JEpSf__5AFosI-14" style="edgeStyle=orthogonalEdgeStyle;rounded=0;orthogonalLoop=1;jettySize=auto;html=1;exitX=0.5;exitY=1;exitDx=0;exitDy=0;entryX=0.5;entryY=0;entryDx=0;entryDy=0;" edge="1" parent="1" source="MraOp17JEpSf__5AFosI-2" target="MraOp17JEpSf__5AFosI-5">
          <mxGeometry relative="1" as="geometry" />
        </mxCell>
        <mxCell id="MraOp17JEpSf__5AFosI-18" style="edgeStyle=orthogonalEdgeStyle;rounded=0;orthogonalLoop=1;jettySize=auto;html=1;exitX=0.5;exitY=1;exitDx=0;exitDy=0;entryX=0;entryY=0.5;entryDx=0;entryDy=0;" edge="1" parent="1" source="MraOp17JEpSf__5AFosI-3" target="MraOp17JEpSf__5AFosI-16">
          <mxGeometry relative="1" as="geometry" />
        </mxCell>
        <mxCell id="MraOp17JEpSf__5AFosI-19" style="edgeStyle=orthogonalEdgeStyle;rounded=0;orthogonalLoop=1;jettySize=auto;html=1;exitX=0.5;exitY=1;exitDx=0;exitDy=0;entryX=0.5;entryY=0;entryDx=0;entryDy=0;" edge="1" parent="1" source="MraOp17JEpSf__5AFosI-4" target="MraOp17JEpSf__5AFosI-16">
          <mxGeometry relative="1" as="geometry" />
        </mxCell>
        <mxCell id="MraOp17JEpSf__5AFosI-20" style="edgeStyle=orthogonalEdgeStyle;rounded=0;orthogonalLoop=1;jettySize=auto;html=1;exitX=0.5;exitY=1;exitDx=0;exitDy=0;entryX=1;entryY=0.5;entryDx=0;entryDy=0;" edge="1" parent="1" source="MraOp17JEpSf__5AFosI-5" target="MraOp17JEpSf__5AFosI-16">
          <mxGeometry relative="1" as="geometry" />
        </mxCell>
        <mxCell id="MraOp17JEpSf__5AFosI-29" value="Typ výběru" style="text;html=1;align=center;verticalAlign=middle;whiteSpace=wrap;rounded=0;" vertex="1" parent="1">
          <mxGeometry x="365" y="210" width="95" height="30" as="geometry" />
        </mxCell>
        <mxCell id="MraOp17JEpSf__5AFosI-40" style="edgeStyle=orthogonalEdgeStyle;rounded=0;orthogonalLoop=1;jettySize=auto;html=1;entryX=0;entryY=0.5;entryDx=0;entryDy=0;" edge="1" parent="1" source="MraOp17JEpSf__5AFosI-33" target="MraOp17JEpSf__5AFosI-39">
          <mxGeometry relative="1" as="geometry" />
        </mxCell>
        <mxCell id="MraOp17JEpSf__5AFosI-33" value="Konstrukce dotazu" style="swimlane;fontStyle=0;childLayout=stackLayout;horizontal=1;startSize=30;horizontalStack=0;resizeParent=1;resizeParentMax=0;resizeLast=0;collapsible=1;marginBottom=0;whiteSpace=wrap;html=1;" vertex="1" parent="1">
          <mxGeometry x="300" y="460" width="150" height="120" as="geometry" />
        </mxCell>
        <mxCell id="MraOp17JEpSf__5AFosI-34" value="1. Popis úlohy" style="text;strokeColor=none;fillColor=none;align=left;verticalAlign=middle;spacingLeft=4;spacingRight=4;overflow=hidden;points=[[0,0.5],[1,0.5]];portConstraint=eastwest;rotatable=0;whiteSpace=wrap;html=1;" vertex="1" parent="MraOp17JEpSf__5AFosI-33">
          <mxGeometry y="30" width="150" height="30" as="geometry" />
        </mxCell>
        <mxCell id="MraOp17JEpSf__5AFosI-35" value="2. Demonstrační příklady" style="text;strokeColor=none;fillColor=none;align=left;verticalAlign=middle;spacingLeft=4;spacingRight=4;overflow=hidden;points=[[0,0.5],[1,0.5]];portConstraint=eastwest;rotatable=0;whiteSpace=wrap;html=1;" vertex="1" parent="MraOp17JEpSf__5AFosI-33">
          <mxGeometry y="60" width="150" height="30" as="geometry" />
        </mxCell>
        <mxCell id="MraOp17JEpSf__5AFosI-36" value="3. Vstupní věta" style="text;strokeColor=none;fillColor=none;align=left;verticalAlign=middle;spacingLeft=4;spacingRight=4;overflow=hidden;points=[[0,0.5],[1,0.5]];portConstraint=eastwest;rotatable=0;whiteSpace=wrap;html=1;" vertex="1" parent="MraOp17JEpSf__5AFosI-33">
          <mxGeometry y="90" width="150" height="30" as="geometry" />
        </mxCell>
        <mxCell id="MraOp17JEpSf__5AFosI-37" style="edgeStyle=orthogonalEdgeStyle;rounded=0;orthogonalLoop=1;jettySize=auto;html=1;entryX=0.5;entryY=0;entryDx=0;entryDy=0;" edge="1" parent="1" source="MraOp17JEpSf__5AFosI-16" target="MraOp17JEpSf__5AFosI-33">
          <mxGeometry relative="1" as="geometry" />
        </mxCell>
        <mxCell id="MraOp17JEpSf__5AFosI-38" style="edgeStyle=orthogonalEdgeStyle;rounded=0;orthogonalLoop=1;jettySize=auto;html=1;exitX=0.5;exitY=1;exitDx=0;exitDy=0;entryX=0;entryY=0.5;entryDx=0;entryDy=0;" edge="1" parent="1" source="MraOp17JEpSf__5AFosI-1" target="MraOp17JEpSf__5AFosI-35">
          <mxGeometry relative="1" as="geometry" />
        </mxCell>
        <mxCell id="MraOp17JEpSf__5AFosI-44" style="edgeStyle=orthogonalEdgeStyle;rounded=0;orthogonalLoop=1;jettySize=auto;html=1;entryX=0.5;entryY=0;entryDx=0;entryDy=0;" edge="1" parent="1" source="MraOp17JEpSf__5AFosI-39" target="MraOp17JEpSf__5AFosI-42">
          <mxGeometry relative="1" as="geometry" />
        </mxCell>
        <mxCell id="MraOp17JEpSf__5AFosI-49" style="edgeStyle=orthogonalEdgeStyle;rounded=0;orthogonalLoop=1;jettySize=auto;html=1;entryX=0.5;entryY=0;entryDx=0;entryDy=0;" edge="1" parent="1" source="MraOp17JEpSf__5AFosI-42" target="MraOp17JEpSf__5AFosI-45">
          <mxGeometry relative="1" as="geometry" />
        </mxCell>
        <mxCell id="MraOp17JEpSf__5AFosI-50" style="edgeStyle=orthogonalEdgeStyle;rounded=0;orthogonalLoop=1;jettySize=auto;html=1;exitX=0.75;exitY=1;exitDx=0;exitDy=0;entryX=0;entryY=0.5;entryDx=0;entryDy=0;" edge="1" parent="1" source="MraOp17JEpSf__5AFosI-42" target="MraOp17JEpSf__5AFosI-47">
          <mxGeometry relative="1" as="geometry" />
        </mxCell>
        <mxCell id="MraOp17JEpSf__5AFosI-52" style="edgeStyle=orthogonalEdgeStyle;rounded=0;orthogonalLoop=1;jettySize=auto;html=1;entryX=1;entryY=0.5;entryDx=0;entryDy=0;" edge="1" parent="1" source="MraOp17JEpSf__5AFosI-47" target="MraOp17JEpSf__5AFosI-45">
          <mxGeometry relative="1" as="geometry" />
        </mxCell>
        <mxCell id="MraOp17JEpSf__5AFosI-53" value="" style="group" vertex="1" connectable="0" parent="1">
          <mxGeometry x="700" y="380" width="120" height="60" as="geometry" />
        </mxCell>
        <mxCell id="MraOp17JEpSf__5AFosI-47" value="" style="rounded=0;whiteSpace=wrap;html=1;" vertex="1" parent="MraOp17JEpSf__5AFosI-53">
          <mxGeometry width="120" height="60" as="geometry" />
        </mxCell>
        <mxCell id="MraOp17JEpSf__5AFosI-48" value="Sebekontrola (volitelné)" style="text;html=1;align=center;verticalAlign=middle;whiteSpace=wrap;rounded=0;" vertex="1" parent="MraOp17JEpSf__5AFosI-53">
          <mxGeometry x="30" y="15" width="60" height="30" as="geometry" />
        </mxCell>
        <mxCell id="MraOp17JEpSf__5AFosI-54" value="" style="group" vertex="1" connectable="0" parent="1">
          <mxGeometry x="580" y="490" width="120" height="60" as="geometry" />
        </mxCell>
        <mxCell id="MraOp17JEpSf__5AFosI-45" value="" style="rounded=0;whiteSpace=wrap;html=1;" vertex="1" parent="MraOp17JEpSf__5AFosI-54">
          <mxGeometry width="120" height="60" as="geometry" />
        </mxCell>
        <mxCell id="MraOp17JEpSf__5AFosI-46" value="Finální výstup" style="text;html=1;align=center;verticalAlign=middle;whiteSpace=wrap;rounded=0;" vertex="1" parent="MraOp17JEpSf__5AFosI-54">
          <mxGeometry x="10" y="15" width="100" height="30" as="geometry" />
        </mxCell>
        <mxCell id="MraOp17JEpSf__5AFosI-55" value="" style="group" vertex="1" connectable="0" parent="1">
          <mxGeometry x="575" y="280" width="130" height="60" as="geometry" />
        </mxCell>
        <mxCell id="MraOp17JEpSf__5AFosI-42" value="" style="rounded=0;whiteSpace=wrap;html=1;" vertex="1" parent="MraOp17JEpSf__5AFosI-55">
          <mxGeometry x="5" width="120" height="60" as="geometry" />
        </mxCell>
        <mxCell id="MraOp17JEpSf__5AFosI-43" value="Vstupní věta s označenými entitami" style="text;html=1;align=center;verticalAlign=middle;whiteSpace=wrap;rounded=0;" vertex="1" parent="MraOp17JEpSf__5AFosI-55">
          <mxGeometry y="15" width="130" height="30" as="geometry" />
        </mxCell>
        <mxCell id="MraOp17JEpSf__5AFosI-56" value="" style="group" vertex="1" connectable="0" parent="1">
          <mxGeometry x="575" y="160" width="130" height="60" as="geometry" />
        </mxCell>
        <mxCell id="MraOp17JEpSf__5AFosI-39" value="" style="rounded=0;whiteSpace=wrap;html=1;" vertex="1" parent="MraOp17JEpSf__5AFosI-56">
          <mxGeometry x="5" width="120" height="60" as="geometry" />
        </mxCell>
        <mxCell id="MraOp17JEpSf__5AFosI-41" value="Jazykový model" style="text;html=1;align=center;verticalAlign=middle;whiteSpace=wrap;rounded=0;" vertex="1" parent="MraOp17JEpSf__5AFosI-56">
          <mxGeometry y="15" width="130" height="30" as="geometry" />
        </mxCell>
        <mxCell id="MraOp17JEpSf__5AFosI-59" value="&lt;h1 style=&quot;margin-top: 0px;&quot;&gt;Schéma systému GPT-NER&lt;/h1&gt;" style="text;html=1;whiteSpace=wrap;overflow=hidden;rounded=0;" vertex="1" parent="1">
          <mxGeometry x="255" y="75" width="340" height="120" as="geometry" />
        </mxCell>
        <mxCell id="MraOp17JEpSf__5AFosI-60" value="@@Columbus## je město" style="text;html=1;align=center;verticalAlign=middle;whiteSpace=wrap;rounded=0;" vertex="1" parent="1">
          <mxGeometry x="640" y="230" width="160" height="30" as="geometry" />
        </mxCell>
        <mxCell id="MraOp17JEpSf__5AFosI-61" value="Columbus je město" style="text;html=1;align=center;verticalAlign=middle;whiteSpace=wrap;rounded=0;" vertex="1" parent="1">
          <mxGeometry x="115" y="505" width="140" height="30" as="geometry" />
        </mxCell>
      </root>
    </mxGraphModel>
  </diagram>
</mxfile>
